<mxfile host="app.diagrams.net" modified="2020-06-18T20:25:59.636Z" agent="5.0 (Windows NT 10.0; Win64; x64) AppleWebKit/537.36 (KHTML, like Gecko) Chrome/83.0.4103.106 Safari/537.36" etag="skuG4Egi1O8yKzcRp2lp" version="13.2.6" type="github">
  <diagram id="BXBeuUN2lcnYVwhaQnw3" name="Page-1">
    <mxGraphModel dx="933" dy="784" grid="1" gridSize="10" guides="1" tooltips="1" connect="1" arrows="1" fold="1" page="1" pageScale="1" pageWidth="827" pageHeight="1169" math="0" shadow="0">
      <root>
        <mxCell id="0" />
        <mxCell id="1" parent="0" />
        <mxCell id="xB0490SuzeO4Boz1weCB-1" value="Dao" style="shape=umlLifeline;perimeter=lifelinePerimeter;whiteSpace=wrap;html=1;container=1;collapsible=0;recursiveResize=0;outlineConnect=0;" parent="1" vertex="1">
          <mxGeometry x="604" y="80" width="100" height="220" as="geometry" />
        </mxCell>
        <mxCell id="xB0490SuzeO4Boz1weCB-2" value="" style="html=1;points=[];perimeter=orthogonalPerimeter;" parent="xB0490SuzeO4Boz1weCB-1" vertex="1">
          <mxGeometry x="45" y="130" width="10" height="40" as="geometry" />
        </mxCell>
        <mxCell id="xB0490SuzeO4Boz1weCB-16" value="" style="html=1;points=[];perimeter=orthogonalPerimeter;" parent="xB0490SuzeO4Boz1weCB-1" vertex="1">
          <mxGeometry x="45" y="73" width="10" height="40" as="geometry" />
        </mxCell>
        <mxCell id="xB0490SuzeO4Boz1weCB-3" value="Service" style="shape=umlLifeline;perimeter=lifelinePerimeter;whiteSpace=wrap;html=1;container=1;collapsible=0;recursiveResize=0;outlineConnect=0;" parent="1" vertex="1">
          <mxGeometry x="364" y="80" width="100" height="220" as="geometry" />
        </mxCell>
        <mxCell id="xB0490SuzeO4Boz1weCB-4" value="" style="html=1;points=[];perimeter=orthogonalPerimeter;" parent="xB0490SuzeO4Boz1weCB-3" vertex="1">
          <mxGeometry x="45" y="130" width="10" height="40" as="geometry" />
        </mxCell>
        <mxCell id="xB0490SuzeO4Boz1weCB-5" value="&lt;span style=&quot;font-size: 10pt ; font-family: &amp;#34;arial&amp;#34;&quot;&gt;UserLoginController&lt;/span&gt;" style="shape=umlLifeline;perimeter=lifelinePerimeter;whiteSpace=wrap;html=1;container=1;collapsible=0;recursiveResize=0;outlineConnect=0;" parent="1" vertex="1">
          <mxGeometry x="106.75" y="80" width="134.5" height="220" as="geometry" />
        </mxCell>
        <mxCell id="xB0490SuzeO4Boz1weCB-6" value="" style="html=1;points=[];perimeter=orthogonalPerimeter;" parent="1" vertex="1">
          <mxGeometry x="169" y="153" width="10" height="97" as="geometry" />
        </mxCell>
        <mxCell id="xB0490SuzeO4Boz1weCB-7" value="userLogin(req)" style="html=1;verticalAlign=bottom;endArrow=block;" parent="1" edge="1">
          <mxGeometry x="-0.0578" width="80" relative="1" as="geometry">
            <mxPoint x="180" y="165" as="sourcePoint" />
            <mxPoint x="410" y="165" as="targetPoint" />
            <mxPoint as="offset" />
          </mxGeometry>
        </mxCell>
        <mxCell id="xB0490SuzeO4Boz1weCB-9" value="" style="html=1;points=[];perimeter=orthogonalPerimeter;" parent="1" vertex="1">
          <mxGeometry x="409" y="153" width="10" height="40" as="geometry" />
        </mxCell>
        <mxCell id="xB0490SuzeO4Boz1weCB-11" value="selectCntUserById(User_detail)" style="html=1;verticalAlign=bottom;endArrow=block;" parent="1" edge="1">
          <mxGeometry x="-0.0578" width="80" relative="1" as="geometry">
            <mxPoint x="419" y="220" as="sourcePoint" />
            <mxPoint x="649" y="220" as="targetPoint" />
            <mxPoint as="offset" />
          </mxGeometry>
        </mxCell>
        <mxCell id="xB0490SuzeO4Boz1weCB-12" value="boolean" style="html=1;verticalAlign=bottom;endArrow=block;exitX=-0.162;exitY=0.94;exitDx=0;exitDy=0;exitPerimeter=0;" parent="1" edge="1">
          <mxGeometry x="0.0325" width="80" relative="1" as="geometry">
            <mxPoint x="406.3800000000001" y="240.60000000000002" as="sourcePoint" />
            <mxPoint x="179.00034482758633" y="239.9999999999999" as="targetPoint" />
            <mxPoint as="offset" />
          </mxGeometry>
        </mxCell>
        <mxCell id="xB0490SuzeO4Boz1weCB-13" value="int" style="html=1;verticalAlign=bottom;endArrow=block;exitX=-0.162;exitY=0.94;exitDx=0;exitDy=0;exitPerimeter=0;" parent="1" edge="1">
          <mxGeometry x="0.0325" width="80" relative="1" as="geometry">
            <mxPoint x="646.3800000000001" y="240.60000000000002" as="sourcePoint" />
            <mxPoint x="419.00034482758633" y="239.9999999999999" as="targetPoint" />
            <mxPoint as="offset" />
          </mxGeometry>
        </mxCell>
        <mxCell id="xB0490SuzeO4Boz1weCB-14" value="selectCntUserById(User_basic)" style="html=1;verticalAlign=bottom;endArrow=block;" parent="1" edge="1">
          <mxGeometry x="-0.0578" width="80" relative="1" as="geometry">
            <mxPoint x="421" y="163" as="sourcePoint" />
            <mxPoint x="651" y="163" as="targetPoint" />
            <mxPoint as="offset" />
          </mxGeometry>
        </mxCell>
        <mxCell id="xB0490SuzeO4Boz1weCB-15" value="int" style="html=1;verticalAlign=bottom;endArrow=block;exitX=-0.162;exitY=0.94;exitDx=0;exitDy=0;exitPerimeter=0;" parent="1" edge="1">
          <mxGeometry x="0.0325" width="80" relative="1" as="geometry">
            <mxPoint x="648.3800000000001" y="180.59999999999997" as="sourcePoint" />
            <mxPoint x="421.00034482758645" y="179.9999999999999" as="targetPoint" />
            <mxPoint as="offset" />
          </mxGeometry>
        </mxCell>
      </root>
    </mxGraphModel>
  </diagram>
</mxfile>
